<?xml version="1.0" standalone="no"?><!DOCTYPE svg PUBLIC "-//W3C//DTD SVG 1.1//EN" "http://www.w3.org/Graphics/SVG/1.1/DTD/svg11.dtd"><svg t="1776149363885" class="icon" viewBox="0 0 2808 1024" version="1.1" xmlns="http://www.w3.org/2000/svg" p-id="1919" xmlns:xlink="http://www.w3.org/1999/xlink" width="548.4375" height="200"><path d="M2296.677184 1023.997952h-1784.679086a511.998098 511.998098 0 0 1-362.026541-874.024639A508.633539 508.633539 0 0 1 511.998098 0.001755h1784.679086a511.998098 511.998098 0 0 1 362.026541 874.02464A508.662796 508.662796 0 0 1 2296.677184 1023.997952z m-1784.679086-994.739162a482.741064 482.741064 0 0 0 0 965.482128h1784.679086a482.741064 482.741064 0 1 0 0-965.482128z" p-id="1920"></path><path d="M614.397718 492.075813a120.890065 117.78882 90 1 0 235.577639 0 120.890065 117.78882 90 1 0-235.577639 0Z" p-id="1921"></path><path d="M483.531004 508.225696m-78.52588 0a78.52588 78.52588 0 1 0 157.05176 0 78.52588 78.52588 0 1 0-157.05176 0Z" p-id="1922"></path><path d="M967.822691 495.147802m-65.447986 0a65.447985 65.447985 0 1 0 130.895971 0 65.447985 65.447985 0 1 0-130.895971 0Z" p-id="1923"></path><path d="M2065.400329 370.512836a145.934087 145.934087 0 0 0-145.758545 145.758545 145.934087 145.934087 0 0 0 145.758545 145.758544 145.934087 145.934087 0 0 0 145.758544-145.758544 145.934087 145.934087 0 0 0-145.758544-145.758545m0-117.028136a262.786681 262.786681 0 1 1 0 525.573362 262.786681 262.786681 0 0 1 0-525.573362z" fill="#000000" p-id="1924"></path><path d="M2070.374024 521.332848m-91.633031 0a91.633031 91.633031 0 1 0 183.266062 0 91.633031 91.633031 0 1 0-183.266062 0Z" p-id="1925"></path><path d="M1404.337641 204.800995h29.257034v585.140684h-29.257034z" p-id="1926"></path></svg>